<mxfile host="app.diagrams.net" modified="2021-05-25T14:07:48.005Z" agent="5.0 (Macintosh; Intel Mac OS X 10_15_7) AppleWebKit/537.36 (KHTML, like Gecko) Chrome/90.0.4430.212 Safari/537.36" etag="LVzukoyXDUtquRoECfMb" version="14.7.1" type="github">
  <diagram id="8U4xtKHRV2Uh1VGhriP6" name="第 1 页">
    <mxGraphModel dx="1426" dy="891" grid="1" gridSize="10" guides="1" tooltips="1" connect="1" arrows="1" fold="1" page="1" pageScale="1" pageWidth="1200" pageHeight="1920" math="0" shadow="0">
      <root>
        <mxCell id="0" />
        <mxCell id="1" parent="0" />
      </root>
    </mxGraphModel>
  </diagram>
</mxfile>
